<svg width="1199" height="1187" viewBox="0 0 1199 1187" fill="none" xmlns="http://www.w3.org/2000/svg">
<path d="M287.963 594.556L288.11 594.791L515.946 959.755L743.782 594.791L743.93 594.556H853.085L852.607 595.32L597.39 1004.15L597.243 1004.38H434.649L434.503 1004.15L179.285 595.32L178.808 594.556H287.963ZM1019.8 594.789L764.586 1003.62L764.439 1003.85H655.283L655.761 1003.09L910.979 594.26L911.126 594.024H1020.28L1019.8 594.789ZM597.391 184.888L852.608 593.714L853.086 594.479H743.93L743.783 594.243L515.946 229.277L288.109 594.243L287.963 594.479H178.807L179.284 593.714L434.502 184.888L434.649 184.652H597.243L597.391 184.888ZM764.587 184.356L1019.8 593.183L1020.28 593.947H911.126L910.979 593.712L655.762 184.886L655.284 184.121H764.439L764.587 184.356Z" fill="currentColor"/>
</svg>